<svg width="25" height="49" viewBox="0 0 25 49" fill="none" xmlns="http://www.w3.org/2000/svg">
<path d="M6.47487 10.8388L5.41421 11.8995C4.63317 12.6806 4.63316 13.9469 5.41421 14.7279L8.24264 17.5564C9.02369 18.3374 10.29 18.3374 11.0711 17.5564L19.5563 9.07108C20.3374 8.29003 20.3374 7.0237 19.5563 6.24265L18.4957 5.18199L9.65685 14.0208L6.47487 10.8388Z" fill="white"/>
<g filter="url(#filter0_d)">
<path d="M6.47487 34.8388L5.41421 35.8995C4.63317 36.6806 4.63316 37.9469 5.41421 38.7279L8.24264 41.5564C9.02369 42.3374 10.29 42.3374 11.0711 41.5564L19.5563 33.0711C20.3374 32.29 20.3374 31.0237 19.5563 30.2427L18.4957 29.182L9.65685 38.0208L6.47487 34.8388Z" fill="white"/>
</g>
<defs>
<filter id="filter0_d" x="0" y="24" width="24.9706" height="24.9706" filterUnits="userSpaceOnUse" color-interpolation-filters="sRGB">
<feFlood flood-opacity="0" result="BackgroundImageFix"/>
<feColorMatrix in="SourceAlpha" type="matrix" values="0 0 0 0 0 0 0 0 0 0 0 0 0 0 0 0 0 0 127 0"/>
<feOffset dy="2"/>
<feGaussianBlur stdDeviation="2"/>
<feColorMatrix type="matrix" values="0 0 0 0 0 0 0 0 0 0 0 0 0 0 0 0 0 0 0.25 0"/>
<feBlend mode="normal" in2="BackgroundImageFix" result="effect1_dropShadow"/>
<feBlend mode="normal" in="SourceGraphic" in2="effect1_dropShadow" result="shape"/>
</filter>
</defs>
</svg>
