<svg width="48" height="96" viewBox="0 0 48 96" fill="none" xmlns="http://www.w3.org/2000/svg">
<path d="M22.7514 67.7103L13.823 50.1565C13.6452 49.8066 13.3824 49.5145 13.0623 49.311C12.7421 49.1074 12.3764 49 12.0039 49C11.6313 49 11.2656 49.1074 10.9455 49.311C10.6253 49.5145 10.3625 49.8066 10.1847 50.1565L1.26272 67.7103C1.08629 68.0479 0.995756 68.4289 1.00015 68.8155C1.00455 69.202 1.10372 69.5806 1.28778 69.9135C1.47184 70.2463 1.73435 70.5218 2.04914 70.7124C2.36393 70.9031 2.72 71.0022 3.08184 71H20.9323C21.2905 70.9996 21.6424 70.8999 21.9537 70.7107C22.265 70.5215 22.525 70.2492 22.7083 69.9204C22.8917 69.5917 22.992 69.2178 22.9995 68.8352C23.0071 68.4526 22.9216 68.0745 22.7514 67.7378V67.7103Z" fill="#E0C019"/>
<path d="M10.1425 56.9949C10.0655 55.9169 10.9193 55 12 55C13.0807 55 13.9345 55.9169 13.8575 56.9949L13.5663 61.0712C13.529 61.5946 13.0935 62 12.5689 62H11.4311C10.9065 62 10.471 61.5946 10.4337 61.0712L10.1425 56.9949Z" fill="white"/>
<circle cx="12" cy="66" r="2" fill="white"/>
<circle cx="12" cy="84" r="12" fill="#DD2222"/>
<path fill-rule="evenodd" clip-rule="evenodd" d="M6.50578 78.498C5.84228 79.162 5.84228 80.2386 6.50578 80.9026L9.59014 83.9894L6.49807 87.0784C5.83398 87.7418 5.83398 88.8174 6.49807 89.4809C7.16216 90.1443 8.23887 90.1443 8.90296 89.4809L11.9929 86.394L15.087 89.4906C15.7505 90.1546 16.8263 90.1546 17.4898 89.4906C18.1533 88.8266 18.1533 87.75 17.4898 87.086L14.3978 83.9916L17.4919 80.9006C18.156 80.2371 18.156 79.1615 17.4919 78.4981C16.8278 77.8347 15.7511 77.8347 15.087 78.4981L11.995 81.5869L8.90853 78.498C8.24503 77.834 7.16928 77.834 6.50578 78.498Z" fill="white"/>
<circle cx="12" cy="12" r="12" fill="#0F678A"/>
<path d="M9 11H13.5L12.6941 15.8356C12.5925 16.4451 13.0625 17 13.6805 17H14C14 17.5523 13.5523 18 13 18H11.3609C10.125 18 9.18496 16.8903 9.38813 15.6712L10 12H9V11Z" fill="white"/>
<path d="M14 7C14 8.10457 13.1046 9 12 9C10.8954 9 10 8.10457 10 7C10 5.89543 10.8954 5 12 5C13.1046 5 14 5.89543 14 7Z" fill="white"/>
<circle cx="12" cy="36" r="12" fill="#218A0F"/>
<path d="M6.5052 35.2378L5.53553 36.2198C4.82149 36.943 4.82149 38.1155 5.53553 38.8387L8.12132 41.4576C8.83537 42.1808 9.99306 42.1808 10.7071 41.4576L18.4645 33.601C19.1785 32.8778 19.1785 31.7053 18.4645 30.9821L17.4948 30L9.41421 38.184L6.5052 35.2378Z" fill="white"/>
<path d="M41 81.0056L38.9944 79L36 82.0085L33.0056 79L31 81.0056L34.0085 84L31 86.9944L33.0056 89L36 85.9915L38.9944 89L41 86.9944L37.9915 84L41 81.0056Z" fill="#DD2222"/>
<path d="M41 57.0057L38.9944 55L36 58.0085L33.0056 55L31 57.0057L34.0085 60L31 62.9944L33.0056 65L36 61.9915L38.9944 65L41 62.9944L37.9915 60L41 57.0057Z" fill="#D7B817"/>
<path d="M41 33.0056L38.9944 31L36 34.0085L33.0056 31L31 33.0056L34.0085 36L31 38.9944L33.0056 41L36 37.9915L38.9944 41L41 38.9944L37.9915 36L41 33.0056Z" fill="#218A0F"/>
<path d="M41 9.00565L38.9944 7L36 10.0085L33.0056 7L31 9.00565L34.0085 12L31 14.9944L33.0056 17L36 13.9915L38.9944 17L41 14.9944L37.9915 12L41 9.00565Z" fill="#0F678A"/>
</svg>
